<svg id="visual" viewBox="0 0 900 600" width="900" height="600" xmlns="http://www.w3.org/2000/svg" xmlns:xlink="http://www.w3.org/1999/xlink" version="1.1"><rect x="0" y="0" width="900" height="600" fill="#001220"></rect><defs><linearGradient id="grad1_0" x1="33.3%" y1="0%" x2="100%" y2="100%"><stop offset="20%" stop-color="#fbae3c" stop-opacity="1"></stop><stop offset="80%" stop-color="#fbae3c" stop-opacity="1"></stop></linearGradient></defs><defs><linearGradient id="grad1_1" x1="33.3%" y1="0%" x2="100%" y2="100%"><stop offset="20%" stop-color="#fbae3c" stop-opacity="1"></stop><stop offset="80%" stop-color="#e1685e" stop-opacity="1"></stop></linearGradient></defs><defs><linearGradient id="grad1_2" x1="33.3%" y1="0%" x2="100%" y2="100%"><stop offset="20%" stop-color="#96446e" stop-opacity="1"></stop><stop offset="80%" stop-color="#e1685e" stop-opacity="1"></stop></linearGradient></defs><defs><linearGradient id="grad1_3" x1="33.3%" y1="0%" x2="100%" y2="100%"><stop offset="20%" stop-color="#96446e" stop-opacity="1"></stop><stop offset="80%" stop-color="#3d3056" stop-opacity="1"></stop></linearGradient></defs><defs><linearGradient id="grad1_4" x1="33.3%" y1="0%" x2="100%" y2="100%"><stop offset="20%" stop-color="#001220" stop-opacity="1"></stop><stop offset="80%" stop-color="#3d3056" stop-opacity="1"></stop></linearGradient></defs><defs><linearGradient id="grad2_0" x1="0%" y1="0%" x2="66.7%" y2="100%"><stop offset="20%" stop-color="#fbae3c" stop-opacity="1"></stop><stop offset="80%" stop-color="#fbae3c" stop-opacity="1"></stop></linearGradient></defs><defs><linearGradient id="grad2_1" x1="0%" y1="0%" x2="66.7%" y2="100%"><stop offset="20%" stop-color="#e1685e" stop-opacity="1"></stop><stop offset="80%" stop-color="#fbae3c" stop-opacity="1"></stop></linearGradient></defs><defs><linearGradient id="grad2_2" x1="0%" y1="0%" x2="66.7%" y2="100%"><stop offset="20%" stop-color="#e1685e" stop-opacity="1"></stop><stop offset="80%" stop-color="#96446e" stop-opacity="1"></stop></linearGradient></defs><defs><linearGradient id="grad2_3" x1="0%" y1="0%" x2="66.7%" y2="100%"><stop offset="20%" stop-color="#3d3056" stop-opacity="1"></stop><stop offset="80%" stop-color="#96446e" stop-opacity="1"></stop></linearGradient></defs><defs><linearGradient id="grad2_4" x1="0%" y1="0%" x2="66.7%" y2="100%"><stop offset="20%" stop-color="#3d3056" stop-opacity="1"></stop><stop offset="80%" stop-color="#001220" stop-opacity="1"></stop></linearGradient></defs><g transform="translate(900, 0)"><path d="M0 486.7C-30.2 470.9 -60.5 455 -87.6 440.4C-114.7 425.7 -138.8 412.2 -169.1 408.4C-199.5 404.5 -236.3 410.3 -268.9 402.4C-301.5 394.6 -329.9 373.1 -344.2 344.2C-358.4 315.2 -358.5 278.8 -378.3 252.8C-398.2 226.7 -437.8 211 -442.5 183.3C-447.3 155.6 -417.2 115.9 -418.8 83.3C-420.4 50.8 -453.6 25.4 -486.7 0L0 0Z" fill="#18223c"></path><path d="M0 389.4C-24.2 376.7 -48.4 364 -70.1 352.3C-91.8 340.6 -111 329.8 -135.3 326.7C-159.6 323.6 -189 328.2 -215.1 321.9C-241.2 315.7 -263.9 298.5 -275.3 275.3C-286.7 252.2 -286.8 223.1 -302.7 202.2C-318.5 181.4 -350.2 168.8 -354 146.6C-357.8 124.5 -333.8 92.7 -335 66.6C-336.3 40.6 -362.8 20.3 -389.4 0L0 0Z" fill="#683a67"></path><path d="M0 292C-18.1 282.5 -36.3 273 -52.6 264.2C-68.8 255.4 -83.3 247.3 -101.5 245C-119.7 242.7 -141.8 246.2 -161.3 241.5C-180.9 236.8 -198 223.9 -206.5 206.5C-215.1 189.1 -215.1 167.3 -227 151.7C-238.9 136 -262.7 126.6 -265.5 110C-268.4 93.4 -250.3 69.5 -251.3 50C-252.2 30.5 -272.1 15.2 -292 0L0 0Z" fill="#c0526a"></path><path d="M0 194.7C-12.1 188.4 -24.2 182 -35 176.1C-45.9 170.3 -55.5 164.9 -67.7 163.3C-79.8 161.8 -94.5 164.1 -107.6 161C-120.6 157.8 -132 149.2 -137.7 137.7C-143.4 126.1 -143.4 111.5 -151.3 101.1C-159.3 90.7 -175.1 84.4 -177 73.3C-178.9 62.2 -166.9 46.3 -167.5 33.3C-168.1 20.3 -181.4 10.2 -194.7 0L0 0Z" fill="#f6884d"></path><path d="M0 97.3C-6 94.2 -12.1 91 -17.5 88.1C-22.9 85.1 -27.8 82.4 -33.8 81.7C-39.9 80.9 -47.3 82.1 -53.8 80.5C-60.3 78.9 -66 74.6 -68.8 68.8C-71.7 63 -71.7 55.8 -75.7 50.6C-79.6 45.3 -87.6 42.2 -88.5 36.7C-89.5 31.1 -83.4 23.2 -83.8 16.7C-84.1 10.2 -90.7 5.1 -97.3 0L0 0Z" fill="#fbae3c"></path></g><g transform="translate(0, 600)"><path d="M0 -486.7C28.9 -463.8 57.8 -440.9 84.5 -424.7C111.1 -408.5 135.5 -399 162.3 -391.7C189 -384.4 218.1 -379.3 248.3 -371.7C278.6 -364 310.1 -353.9 337.3 -337.3C364.5 -320.7 387.5 -297.5 404.7 -270.4C421.9 -243.3 433.4 -212.2 437 -181C440.6 -149.8 436.3 -118.4 443.3 -88.2C450.3 -58 468.5 -29 486.7 0L0 0Z" fill="#18223c"></path><path d="M0 -389.4C23.1 -371.1 46.3 -352.7 67.6 -339.7C88.9 -326.8 108.4 -319.2 129.8 -313.4C151.2 -307.5 174.5 -303.4 198.7 -297.3C222.9 -291.2 248.1 -283.1 269.8 -269.8C291.6 -256.5 310 -238 323.8 -216.3C337.6 -194.7 346.7 -169.8 349.6 -144.8C352.5 -119.8 349.1 -94.7 354.7 -70.5C360.2 -46.4 374.8 -23.2 389.4 0L0 0Z" fill="#683a67"></path><path d="M0 -292C17.3 -278.3 34.7 -264.5 50.7 -254.8C66.7 -245.1 81.3 -239.4 97.4 -235C113.4 -230.7 130.8 -227.6 149 -223C167.2 -218.4 186 -212.4 202.4 -202.4C218.7 -192.4 232.5 -178.5 242.8 -162.3C253.2 -146 260 -127.3 262.2 -108.6C264.4 -89.9 261.8 -71 266 -52.9C270.2 -34.8 281.1 -17.4 292 0L0 0Z" fill="#c0526a"></path><path d="M0 -194.7C11.6 -185.5 23.1 -176.4 33.8 -169.9C44.5 -163.4 54.2 -159.6 64.9 -156.7C75.6 -153.8 87.2 -151.7 99.3 -148.7C111.4 -145.6 124 -141.6 134.9 -134.9C145.8 -128.3 155 -119 161.9 -108.2C168.8 -97.3 173.4 -84.9 174.8 -72.4C176.2 -59.9 174.5 -47.4 177.3 -35.3C180.1 -23.2 187.4 -11.6 194.7 0L0 0Z" fill="#f6884d"></path><path d="M0 -97.3C5.8 -92.8 11.6 -88.2 16.9 -84.9C22.2 -81.7 27.1 -79.8 32.5 -78.3C37.8 -76.9 43.6 -75.9 49.7 -74.3C55.7 -72.8 62 -70.8 67.5 -67.5C72.9 -64.1 77.5 -59.5 80.9 -54.1C84.4 -48.7 86.7 -42.4 87.4 -36.2C88.1 -30 87.3 -23.7 88.7 -17.6C90.1 -11.6 93.7 -5.8 97.3 0L0 0Z" fill="#fbae3c"></path></g></svg>