<svg id="visual" viewBox="0 0 900 600" width="900" height="600" xmlns="http://www.w3.org/2000/svg" xmlns:xlink="http://www.w3.org/1999/xlink" version="1.1"><path d="M0 235L21.5 218C43 201 86 167 128.8 164C171.7 161 214.3 189 257.2 196C300 203 343 189 385.8 199C428.7 209 471.3 243 514.2 246C557 249 600 221 642.8 210C685.7 199 728.3 205 771.2 194C814 183 857 155 878.5 141L900 127L900 0L878.5 0C857 0 814 0 771.2 0C728.3 0 685.7 0 642.8 0C600 0 557 0 514.2 0C471.3 0 428.7 0 385.8 0C343 0 300 0 257.2 0C214.3 0 171.7 0 128.8 0C86 0 43 0 21.5 0L0 0Z" fill="#8c5fa4"></path><path d="M0 283L21.5 267C43 251 86 219 128.8 226C171.7 233 214.3 279 257.2 295C300 311 343 297 385.8 308C428.7 319 471.3 355 514.2 363C557 371 600 351 642.8 332C685.7 313 728.3 295 771.2 279C814 263 857 249 878.5 242L900 235L900 125L878.5 139C857 153 814 181 771.2 192C728.3 203 685.7 197 642.8 208C600 219 557 247 514.2 244C471.3 241 428.7 207 385.8 197C343 187 300 201 257.2 194C214.3 187 171.7 159 128.8 162C86 165 43 199 21.5 216L0 233Z" fill="#75428f"></path><path d="M0 349L21.5 356C43 363 86 377 128.8 400C171.7 423 214.3 455 257.2 446C300 437 343 387 385.8 390C428.7 393 471.3 449 514.2 465C557 481 600 457 642.8 428C685.7 399 728.3 365 771.2 346C814 327 857 323 878.5 321L900 319L900 233L878.5 240C857 247 814 261 771.2 277C728.3 293 685.7 311 642.8 330C600 349 557 369 514.2 361C471.3 353 428.7 317 385.8 306C343 295 300 309 257.2 293C214.3 277 171.7 231 128.8 224C86 217 43 249 21.5 265L0 281Z" fill="#5f2f78"></path><path d="M0 601L21.5 601C43 601 86 601 128.8 601C171.7 601 214.3 601 257.2 601C300 601 343 601 385.8 601C428.7 601 471.3 601 514.2 601C557 601 600 601 642.8 601C685.7 601 728.3 601 771.2 601C814 601 857 601 878.5 601L900 601L900 317L878.5 319C857 321 814 325 771.2 344C728.3 363 685.7 397 642.8 426C600 455 557 479 514.2 463C471.3 447 428.7 391 385.8 388C343 385 300 435 257.2 444C214.3 453 171.7 421 128.8 398C86 375 43 361 21.5 354L0 347Z" fill="#4c2761"></path></svg>