<svg id="visual" viewBox="0 0 900 600" width="900" height="600" xmlns="http://www.w3.org/2000/svg" xmlns:xlink="http://www.w3.org/1999/xlink" version="1.1"><rect x="0" y="0" width="900" height="600" fill="#c552ef"></rect><path d="M0 380L21.5 379.8C43 379.7 86 379.3 128.8 368.3C171.7 357.3 214.3 335.7 257.2 331.5C300 327.3 343 340.7 385.8 335.5C428.7 330.3 471.3 306.7 514.2 292.2C557 277.7 600 272.3 642.8 281.3C685.7 290.3 728.3 313.7 771.2 332.8C814 352 857 367 878.5 374.5L900 382L900 601L878.5 601C857 601 814 601 771.2 601C728.3 601 685.7 601 642.8 601C600 601 557 601 514.2 601C471.3 601 428.7 601 385.8 601C343 601 300 601 257.2 601C214.3 601 171.7 601 128.8 601C86 601 43 601 21.5 601L0 601Z" fill="#4e41a5"></path><path d="M0 318L21.5 327.8C43 337.7 86 357.3 128.8 375.2C171.7 393 214.3 409 257.2 416C300 423 343 421 385.8 407.5C428.7 394 471.3 369 514.2 366.3C557 363.7 600 383.3 642.8 397.3C685.7 411.3 728.3 419.7 771.2 421.3C814 423 857 418 878.5 415.5L900 413L900 601L878.5 601C857 601 814 601 771.2 601C728.3 601 685.7 601 642.8 601C600 601 557 601 514.2 601C471.3 601 428.7 601 385.8 601C343 601 300 601 257.2 601C214.3 601 171.7 601 128.8 601C86 601 43 601 21.5 601L0 601Z" fill="#a8468c"></path><path d="M0 442L21.5 442.2C43 442.3 86 442.7 128.8 447.5C171.7 452.3 214.3 461.7 257.2 450C300 438.3 343 405.7 385.8 405.3C428.7 405 471.3 437 514.2 451C557 465 600 461 642.8 447.8C685.7 434.7 728.3 412.3 771.2 400.8C814 389.3 857 388.7 878.5 388.3L900 388L900 601L878.5 601C857 601 814 601 771.2 601C728.3 601 685.7 601 642.8 601C600 601 557 601 514.2 601C471.3 601 428.7 601 385.8 601C343 601 300 601 257.2 601C214.3 601 171.7 601 128.8 601C86 601 43 601 21.5 601L0 601Z" fill="#cd6776"></path><path d="M0 492L21.5 492.8C43 493.7 86 495.3 128.8 499C171.7 502.7 214.3 508.3 257.2 501.2C300 494 343 474 385.8 474.5C428.7 475 471.3 496 514.2 493.3C557 490.7 600 464.3 642.8 453.3C685.7 442.3 728.3 446.7 771.2 457C814 467.3 857 483.7 878.5 491.8L900 500L900 601L878.5 601C857 601 814 601 771.2 601C728.3 601 685.7 601 642.8 601C600 601 557 601 514.2 601C471.3 601 428.7 601 385.8 601C343 601 300 601 257.2 601C214.3 601 171.7 601 128.8 601C86 601 43 601 21.5 601L0 601Z" fill="#d69375"></path><path d="M0 554L21.5 551.5C43 549 86 544 128.8 536.8C171.7 529.7 214.3 520.3 257.2 517.8C300 515.3 343 519.7 385.8 520.8C428.7 522 471.3 520 514.2 524.7C557 529.3 600 540.7 642.8 546.2C685.7 551.7 728.3 551.3 771.2 546.3C814 541.3 857 531.7 878.5 526.8L900 522L900 601L878.5 601C857 601 814 601 771.2 601C728.3 601 685.7 601 642.8 601C600 601 557 601 514.2 601C471.3 601 428.7 601 385.8 601C343 601 300 601 257.2 601C214.3 601 171.7 601 128.8 601C86 601 43 601 21.5 601L0 601Z" fill="#d5be93"></path></svg>